PathFileType	4	(X/Y/Z)	C:/Users/beibeiliu/ov580/test_trc\sequence.28_training_dense_left.trc
DataRate	CameraRate	NumFrames	NumMarkers	Units	OrigDataRate	OrigDataStartFrame	OrigNumFrames
120	120	11	19	mm	120	125	333
Frame#	Time	ThumbCMC			ThumbMCP			ThumbIP			ThumbTip			IndexMCP			IndexPIP			IndexTip			MiddleMCP			MiddlePIP			MiddleTip			RingMCP			RingPIP			RingTip			PinkyMCP			PinkyPIP			PinkyTip			BackHand1			BackHand2			BackHand3	
		X0	Y0	Z0	X1	Y1	Z1	X2	Y2	Z2	X3	Y3	Z3	X4	Y4	Z4	X5	Y5	Z5	X6	Y6	Z6	X7	Y7	Z7	X8	Y8	Z8	X9	Y9	Z9	X10	Y10	Z10	X11	Y11	Z11	X12	Y12	Z12	X13	Y13	Z13	X14	Y14	Z14	X15	Y15	Z15	X16	Y16	Z16	X17	Y17	Z17	X18	Y18	Z18	
124	1.03333	-166.756	22.3345	30.5623	-148.024	10.2249	8.51051	-139.206	-0.88072	-14.0418	-142.274	-20.5758	-25.8648	-186.065	21.7463	-30.619	-173.171	11.2286	-52.5758	-146.726	-1.5348	-44.4043	-198.586	7.30586	-34.8078	-183.302	-7.89047	-58.1417	-156.037	-15.7344	-46.3938	-201.791	-13.454	-27.122	-183.423	-20.6987	-46.484	-157.109	-24.8475	-29.9825	-201.745	-31.5359	-14.8537	-180.948	-35.5703	-30.5236	-157.757	-35.9282	-22.3036	-210.719	-1.8836	14.7555	-214.026	-0.586806	43.6683	-199.692	20.2555	29.041	
125	1.04167	-167.567	23.6676	31.4272	-145.38	12.7742	10.8804	-139.243	0.277738	-10.3439	-142.778	-19.3386	-25.6904	-186.051	23.7286	-29.1575	-171.866	14.6982	-53.1665	-146.321	-1.06667	-43.8248	-199.333	5.94414	-38.0952	-183.671	-7.44728	-57.8656	-155.892	-17.8553	-44.6435	-202.344	-14.2484	-28.3711	-178.111	-20.2435	-46.0003	-157.288	-28.4315	-30.0809	-201.1	-30.7742	-14.6699	-181.133	-35.0617	-31.0858	-158.781	-36.3455	-21.5727	-212.486	-5.36303	15.4974	-214.43	-0.399871	40.3988	-200.933	20.7402	27.8147	
126	1.05	-167.293	23.1546	31.4741	-148.572	12.3576	11.5385	-140.283	-0.087555	-13.7306	-144.044	-20.2152	-26.2111	-186.541	22.8436	-34.1562	-170.929	13.2861	-53.0034	-146.007	-3.50414	-40.8632	-200.588	3.83895	-32.3169	-186.215	-2.82379	-58.6198	-157.154	-15.1462	-48.8621	-201.812	-15.3558	-32.1176	-180.848	-21.9724	-44.7381	-158.622	-26.6343	-31.7043	-202.315	-32.634	-15.114	-183.745	-33.6635	-30.891	-159.258	-34.744	-19.4089	-213.429	-4.13935	13.7683	-212.513	-2.09871	44.5527	-204.127	19.0944	25.2947	
127	1.05833	-169.03	23.2915	31.9665	-145.1	12.9526	10.3044	-143.098	-0.849382	-10.5039	-145.203	-23.3917	-28.8547	-187.928	19.2942	-32.945	-171.87	12.2153	-51.9872	-145.752	-3.31623	-40.1066	-199.482	6.28251	-37.2291	-183.65	-5.90127	-57.8123	-156.02	-17.4452	-44.647	-201.445	-14.2075	-30.4538	-182.418	-23.7093	-44.4551	-156.497	-24.404	-28.133	-202	-33.3896	-15.5636	-182.524	-39.3174	-30.0101	-158.717	-33.8874	-18.1174	-212.505	-4.27128	19.0034	-215.291	-1.84456	40.3051	-205.154	17.4273	24.8024	
128	1.06667	-170.018	22.004	32.7377	-147.02	11.9908	10.2622	-143.249	-1.58988	-11.7298	-143.436	-20.8487	-25.5915	-188.986	18.8074	-29.596	-171.185	9.57916	-51.6688	-147.32	2.11493	-41.9047	-200.26	2.5704	-37.1817	-182.804	-5.93213	-58.399	-157.692	-18.4595	-42.4624	-201.863	-16.024	-31.636	-182.901	-23.1773	-44.8276	-157.403	-25.7107	-26.6969	-201.394	-30.7183	-13.6464	-180.825	-38.651	-29.7457	-157.991	-31.5215	-15.147	-212.598	-7.06973	16.4603	-216.015	-4.11894	43.6618	-204.643	19.2364	28.9568	
129	1.075	-169.775	22.5459	32.1683	-148.672	11.1085	9.74643	-144.028	-1.88953	-14.099	-145.079	-18.5093	-23.9028	-187.611	22.2108	-28.7502	-168.611	10.5265	-51.3625	-146.91	2.35034	-40.2196	-201.052	0.125752	-33.9186	-181.337	-7.39055	-56.3176	-156.43	-17.4255	-39.7391	-201.14	-17.1068	-30.1387	-180.597	-24.9114	-44.101	-158.315	-26.5011	-26.1206	-202.057	-33.0696	-14.8429	-180.361	-35.4191	-29.6419	-157.179	-30.8828	-15.4406	-213.267	-6.72702	17.6564	-215.015	-2.2364	43.1445	-203.307	19.8171	26.5413	
130	1.08333	-170.743	22.0638	30.0082	-148.721	12.1337	5.9721	-143.405	-1.87958	-13.6646	-143.862	-20.3108	-27.8999	-187.593	22.7945	-29.0251	-170.427	9.70723	-51.2422	-146.72	-0.514298	-34.9443	-199.404	3.66154	-35.4302	-181.729	-7.36303	-55.9504	-156.963	-14.8838	-37.7251	-202.514	-16.9813	-26.2503	-176.309	-20.884	-42.9876	-156.957	-24.0822	-22.3198	-199.446	-30.526	-16.8775	-180.183	-33.7982	-28.7909	-158.677	-31.9202	-13.8514	-215.127	-7.97458	14.1513	-213.605	-5.18913	42.4251	-204.404	18.826	29.4946	
131	1.09167	-171.356	20.1271	32.4654	-149.849	10.7711	8.26503	-142.426	-0.0258506	-11.1064	-144.488	-20.2169	-26.3258	-188.058	20.9507	-31.563	-172.399	11.768	-50.661	-150.058	-1.28562	-35.4044	-200.369	3.07984	-37.0227	-179.777	-7.59855	-54.8892	-157.066	-15.6878	-31.4431	-200.964	-16.5219	-28.703	-177.735	-24.5855	-42.9003	-159.471	-27.314	-23.2514	-199.429	-28.3995	-15.856	-179.601	-35.9776	-27.8797	-156.677	-33.8091	-11.6335	-214.628	-9.77442	17.4983	-214.994	-2.8606	42.5949	-204.898	16.9436	30.1022	
132	1.1	-171	21.0123	30.6464	-146.743	11.7236	6.78697	-142.484	0.493728	-13.9462	-142.77	-17.9694	-27.1098	-188.835	20.2023	-30.2246	-171.875	9.01349	-50.2497	-149.137	0.47212	-34.7445	-199.34	3.8585	-38.0744	-179.088	-8.93304	-53.6005	-157.417	-14.4041	-27.8093	-199.543	-11.926	-30.9427	-176.482	-23.5471	-41.6772	-158.723	-22.8535	-22.2673	-199.829	-27.9715	-16.7505	-178.056	-34.166	-27.9834	-159.378	-32.5007	-10.5032	-212.196	-6.76186	14.5661	-214.003	-2.87746	45.8926	-204.534	20.1012	24.792	
133	1.10833	-168.427	23.4179	30.0249	-146.95	13.6598	9.74006	-143.265	1.1051	-11.9029	-144.233	-19.1478	-31.1537	-188.703	24.1793	-28.8231	-172.721	11.7356	-49.2235	-149.163	1.8303	-32.1086	-199.516	4.96864	-36.0206	-177.767	-3.04614	-53.7665	-158.925	-13.9918	-29.6424	-203.298	-15.3823	-27.3369	-179.306	-19.4251	-42.3146	-159.556	-21.4888	-19.9965	-201.886	-31.1175	-16.8673	-180.728	-36.75	-29.0203	-161.754	-30.3852	-14.3423	-214.709	-5.18671	19.2902	-214.813	-3.44415	44.7011	-205.403	18.3368	28.8019	
134	1.11667	-168.979	21.297	33.72	-150.632	11.0508	6.56441	-145.219	1.16979	-13.5357	-145.061	-16.3258	-29.2671	-189.857	24.8422	-28.2704	-168.496	17.0127	-49.4231	-152.033	2.72759	-33.6909	-198.767	9.12042	-35.8035	-180.778	-2.90547	-54.4727	-157.77	-7.75189	-28.3381	-203.083	-13.1688	-28.5466	-178.199	-18.2117	-42.4186	-160.18	-23.3381	-18.8592	-201.899	-29.9831	-20.7998	-178.019	-31.163	-28.8362	-160.862	-26.7093	-11.7462	-213.152	-6.0025	14.5145	-215.208	-0.838121	40.5673	-205.001	21.2254	27.1464	
